<svg width="100%" height="100%" viewBox="0 0 1920 1080" xmlns="http://www.w3.org/2000/svg">
<circle cx="50" cy="600.0" r="4" fill="red" stroke="none" stroke-width="1" />
<text x="50" y="620.0" fill="red" font-size="12" text-anchor="middle">0.0m</text>
<circle cx="50" cy="200.0" r="4" fill="blue" stroke="none" stroke-width="1" />
<text x="50" y="190.0" fill="black" font-size="12" text-anchor="middle">10.0m</text>
<circle cx="90" cy="200.0" r="4" fill="blue" stroke="none" stroke-width="1" />
<circle cx="130" cy="200.0" r="4" fill="blue" stroke="none" stroke-width="1" />
<circle cx="170" cy="200.0" r="4" fill="blue" stroke="none" stroke-width="1" />
<circle cx="210" cy="200.0" r="4" fill="blue" stroke="none" stroke-width="1" />
<circle cx="250" cy="200.0" r="4" fill="blue" stroke="none" stroke-width="1" />
<circle cx="290" cy="200.0" r="4" fill="blue" stroke="none" stroke-width="1" />
<circle cx="330" cy="200.0" r="4" fill="blue" stroke="none" stroke-width="1" />
<circle cx="370" cy="200.0" r="4" fill="blue" stroke="none" stroke-width="1" />
<circle cx="410" cy="200.0" r="4" fill="blue" stroke="none" stroke-width="1" />
<circle cx="450" cy="240.0" r="4" fill="blue" stroke="none" stroke-width="1" />
<text x="450" y="260.0" fill="black" font-size="12" text-anchor="middle">9.0m</text>
<circle cx="490" cy="200.0" r="4" fill="blue" stroke="none" stroke-width="1" />
<text x="490" y="190.0" fill="black" font-size="12" text-anchor="middle">10.0m</text>
<circle cx="530" cy="200.0" r="4" fill="blue" stroke="none" stroke-width="1" />
<circle cx="570" cy="200.0" r="4" fill="blue" stroke="none" stroke-width="1" />
<circle cx="610" cy="200.0" r="4" fill="blue" stroke="none" stroke-width="1" />
<circle cx="650" cy="240.0" r="4" fill="blue" stroke="none" stroke-width="1" />
<text x="650" y="260.0" fill="black" font-size="12" text-anchor="middle">9.0m</text>
<circle cx="690" cy="200.0" r="4" fill="blue" stroke="none" stroke-width="1" />
<text x="690" y="190.0" fill="black" font-size="12" text-anchor="middle">10.0m</text>
<circle cx="730" cy="200.0" r="4" fill="blue" stroke="none" stroke-width="1" />
<circle cx="770" cy="200.0" r="4" fill="blue" stroke="none" stroke-width="1" />
<circle cx="810" cy="200.0" r="4" fill="blue" stroke="none" stroke-width="1" />
<circle cx="850" cy="200.0" r="4" fill="blue" stroke="none" stroke-width="1" />
<circle cx="890" cy="240.0" r="4" fill="blue" stroke="none" stroke-width="1" />
<text x="890" y="260.0" fill="black" font-size="12" text-anchor="middle">9.0m</text>
<circle cx="930" cy="200.0" r="4" fill="blue" stroke="none" stroke-width="1" />
<text x="930" y="190.0" fill="black" font-size="12" text-anchor="middle">10.0m</text>
<circle cx="970" cy="240.0" r="4" fill="blue" stroke="none" stroke-width="1" />
<text x="970" y="260.0" fill="black" font-size="12" text-anchor="middle">9.0m</text>
<circle cx="1010" cy="200.0" r="4" fill="blue" stroke="none" stroke-width="1" />
<text x="1010" y="190.0" fill="black" font-size="12" text-anchor="middle">10.0m</text>
<circle cx="1050" cy="200.0" r="4" fill="blue" stroke="none" stroke-width="1" />
<circle cx="1090" cy="200.0" r="4" fill="blue" stroke="none" stroke-width="1" />
<circle cx="1130" cy="200.0" r="4" fill="blue" stroke="none" stroke-width="1" />
<circle cx="1170" cy="200.0" r="4" fill="blue" stroke="none" stroke-width="1" />
<circle cx="1210" cy="200.0" r="4" fill="blue" stroke="none" stroke-width="1" />
<circle cx="1250" cy="120.0" r="4" fill="blue" stroke="none" stroke-width="1" />
<text x="1250" y="110.0" fill="black" font-size="12" text-anchor="middle">12.0m</text>
<circle cx="1290" cy="80.0" r="4" fill="blue" stroke="none" stroke-width="1" />
<text x="1290" y="70.0" fill="black" font-size="12" text-anchor="middle">13.0m</text>
<circle cx="1330" cy="200.0" r="4" fill="blue" stroke="none" stroke-width="1" />
<text x="1330" y="220.0" fill="black" font-size="12" text-anchor="middle">10.0m</text>
<circle cx="1370" cy="200.0" r="4" fill="blue" stroke="none" stroke-width="1" />
<circle cx="1410" cy="200.0" r="4" fill="blue" stroke="none" stroke-width="1" />
<circle cx="1450" cy="200.0" r="4" fill="blue" stroke="none" stroke-width="1" />
<circle cx="1490" cy="200.0" r="4" fill="blue" stroke="none" stroke-width="1" />
<circle cx="1530" cy="200.0" r="4" fill="blue" stroke="none" stroke-width="1" />
<circle cx="1570" cy="200.0" r="4" fill="blue" stroke="none" stroke-width="1" />
<circle cx="1610" cy="160.0" r="4" fill="blue" stroke="none" stroke-width="1" />
<text x="1610" y="150.0" fill="black" font-size="12" text-anchor="middle">11.0m</text>
<circle cx="1650" cy="120.0" r="4" fill="blue" stroke="none" stroke-width="1" />
<text x="1650" y="110.0" fill="black" font-size="12" text-anchor="middle">12.0m</text>
<circle cx="1690" cy="200.0" r="4" fill="blue" stroke="none" stroke-width="1" />
<text x="1690" y="220.0" fill="black" font-size="12" text-anchor="middle">10.0m</text>
<circle cx="1730" cy="200.0" r="4" fill="blue" stroke="none" stroke-width="1" />
<circle cx="1770" cy="200.0" r="4" fill="blue" stroke="none" stroke-width="1" />
<circle cx="1810" cy="200.0" r="4" fill="blue" stroke="none" stroke-width="1" />
<circle cx="1810" cy="600.0" r="4" fill="red" stroke="none" stroke-width="1" />
<text x="1810" y="620.0" fill="red" font-size="12" text-anchor="middle">0.0m</text>
<line x1="50" y1="600.0" x2="50" y2="200.0" stroke="black" stroke-width="2" />
<line x1="1810" y1="600.0" x2="50" y2="600.0" stroke="black" stroke-width="2" />
<line x1="50" y1="200.0" x2="90" y2="200.0" stroke="black" stroke-width="2" />
<line x1="1810" y1="600.0" x2="50" y2="600.0" stroke="black" stroke-width="2" />
<line x1="90" y1="200.0" x2="130" y2="200.0" stroke="black" stroke-width="2" />
<line x1="1810" y1="600.0" x2="50" y2="600.0" stroke="black" stroke-width="2" />
<line x1="130" y1="200.0" x2="170" y2="200.0" stroke="black" stroke-width="2" />
<line x1="1810" y1="600.0" x2="50" y2="600.0" stroke="black" stroke-width="2" />
<line x1="170" y1="200.0" x2="210" y2="200.0" stroke="black" stroke-width="2" />
<line x1="1810" y1="600.0" x2="50" y2="600.0" stroke="black" stroke-width="2" />
<line x1="210" y1="200.0" x2="250" y2="200.0" stroke="black" stroke-width="2" />
<line x1="1810" y1="600.0" x2="50" y2="600.0" stroke="black" stroke-width="2" />
<line x1="250" y1="200.0" x2="290" y2="200.0" stroke="black" stroke-width="2" />
<line x1="1810" y1="600.0" x2="50" y2="600.0" stroke="black" stroke-width="2" />
<line x1="290" y1="200.0" x2="330" y2="200.0" stroke="black" stroke-width="2" />
<line x1="1810" y1="600.0" x2="50" y2="600.0" stroke="black" stroke-width="2" />
<line x1="330" y1="200.0" x2="370" y2="200.0" stroke="black" stroke-width="2" />
<line x1="1810" y1="600.0" x2="50" y2="600.0" stroke="black" stroke-width="2" />
<line x1="370" y1="200.0" x2="410" y2="200.0" stroke="black" stroke-width="2" />
<line x1="1810" y1="600.0" x2="50" y2="600.0" stroke="black" stroke-width="2" />
<line x1="410" y1="200.0" x2="450" y2="240.0" stroke="black" stroke-width="2" />
<line x1="1810" y1="600.0" x2="50" y2="600.0" stroke="black" stroke-width="2" />
<line x1="450" y1="240.0" x2="490" y2="200.0" stroke="black" stroke-width="2" />
<line x1="1810" y1="600.0" x2="50" y2="600.0" stroke="black" stroke-width="2" />
<line x1="490" y1="200.0" x2="530" y2="200.0" stroke="black" stroke-width="2" />
<line x1="1810" y1="600.0" x2="50" y2="600.0" stroke="black" stroke-width="2" />
<line x1="530" y1="200.0" x2="570" y2="200.0" stroke="black" stroke-width="2" />
<line x1="1810" y1="600.0" x2="50" y2="600.0" stroke="black" stroke-width="2" />
<line x1="570" y1="200.0" x2="610" y2="200.0" stroke="black" stroke-width="2" />
<line x1="1810" y1="600.0" x2="50" y2="600.0" stroke="black" stroke-width="2" />
<line x1="610" y1="200.0" x2="650" y2="240.0" stroke="black" stroke-width="2" />
<line x1="1810" y1="600.0" x2="50" y2="600.0" stroke="black" stroke-width="2" />
<line x1="650" y1="240.0" x2="690" y2="200.0" stroke="black" stroke-width="2" />
<line x1="1810" y1="600.0" x2="50" y2="600.0" stroke="black" stroke-width="2" />
<line x1="690" y1="200.0" x2="730" y2="200.0" stroke="black" stroke-width="2" />
<line x1="1810" y1="600.0" x2="50" y2="600.0" stroke="black" stroke-width="2" />
<line x1="730" y1="200.0" x2="770" y2="200.0" stroke="black" stroke-width="2" />
<line x1="1810" y1="600.0" x2="50" y2="600.0" stroke="black" stroke-width="2" />
<line x1="770" y1="200.0" x2="810" y2="200.0" stroke="black" stroke-width="2" />
<line x1="1810" y1="600.0" x2="50" y2="600.0" stroke="black" stroke-width="2" />
<line x1="810" y1="200.0" x2="850" y2="200.0" stroke="black" stroke-width="2" />
<line x1="1810" y1="600.0" x2="50" y2="600.0" stroke="black" stroke-width="2" />
<line x1="850" y1="200.0" x2="890" y2="240.0" stroke="black" stroke-width="2" />
<line x1="1810" y1="600.0" x2="50" y2="600.0" stroke="black" stroke-width="2" />
<line x1="890" y1="240.0" x2="930" y2="200.0" stroke="black" stroke-width="2" />
<line x1="1810" y1="600.0" x2="50" y2="600.0" stroke="black" stroke-width="2" />
<line x1="930" y1="200.0" x2="970" y2="240.0" stroke="black" stroke-width="2" />
<line x1="1810" y1="600.0" x2="50" y2="600.0" stroke="black" stroke-width="2" />
<line x1="970" y1="240.0" x2="1010" y2="200.0" stroke="black" stroke-width="2" />
<line x1="1810" y1="600.0" x2="50" y2="600.0" stroke="black" stroke-width="2" />
<line x1="1010" y1="200.0" x2="1050" y2="200.0" stroke="black" stroke-width="2" />
<line x1="1810" y1="600.0" x2="50" y2="600.0" stroke="black" stroke-width="2" />
<line x1="1050" y1="200.0" x2="1090" y2="200.0" stroke="black" stroke-width="2" />
<line x1="1810" y1="600.0" x2="50" y2="600.0" stroke="black" stroke-width="2" />
<line x1="1090" y1="200.0" x2="1130" y2="200.0" stroke="black" stroke-width="2" />
<line x1="1810" y1="600.0" x2="50" y2="600.0" stroke="black" stroke-width="2" />
<line x1="1130" y1="200.0" x2="1170" y2="200.0" stroke="black" stroke-width="2" />
<line x1="1810" y1="600.0" x2="50" y2="600.0" stroke="black" stroke-width="2" />
<line x1="1170" y1="200.0" x2="1210" y2="200.0" stroke="black" stroke-width="2" />
<line x1="1810" y1="600.0" x2="50" y2="600.0" stroke="black" stroke-width="2" />
<line x1="1210" y1="200.0" x2="1250" y2="120.0" stroke="black" stroke-width="2" />
<line x1="1810" y1="600.0" x2="50" y2="600.0" stroke="black" stroke-width="2" />
<line x1="1250" y1="120.0" x2="1290" y2="80.0" stroke="black" stroke-width="2" />
<line x1="1810" y1="600.0" x2="50" y2="600.0" stroke="black" stroke-width="2" />
<line x1="1290" y1="80.0" x2="1330" y2="200.0" stroke="black" stroke-width="2" />
<line x1="1810" y1="600.0" x2="50" y2="600.0" stroke="black" stroke-width="2" />
<line x1="1330" y1="200.0" x2="1370" y2="200.0" stroke="black" stroke-width="2" />
<line x1="1810" y1="600.0" x2="50" y2="600.0" stroke="black" stroke-width="2" />
<line x1="1370" y1="200.0" x2="1410" y2="200.0" stroke="black" stroke-width="2" />
<line x1="1810" y1="600.0" x2="50" y2="600.0" stroke="black" stroke-width="2" />
<line x1="1410" y1="200.0" x2="1450" y2="200.0" stroke="black" stroke-width="2" />
<line x1="1810" y1="600.0" x2="50" y2="600.0" stroke="black" stroke-width="2" />
<line x1="1450" y1="200.0" x2="1490" y2="200.0" stroke="black" stroke-width="2" />
<line x1="1810" y1="600.0" x2="50" y2="600.0" stroke="black" stroke-width="2" />
<line x1="1490" y1="200.0" x2="1530" y2="200.0" stroke="black" stroke-width="2" />
<line x1="1810" y1="600.0" x2="50" y2="600.0" stroke="black" stroke-width="2" />
<line x1="1530" y1="200.0" x2="1570" y2="200.0" stroke="black" stroke-width="2" />
<line x1="1810" y1="600.0" x2="50" y2="600.0" stroke="black" stroke-width="2" />
<line x1="1570" y1="200.0" x2="1610" y2="160.0" stroke="black" stroke-width="2" />
<line x1="1810" y1="600.0" x2="50" y2="600.0" stroke="black" stroke-width="2" />
<line x1="1610" y1="160.0" x2="1650" y2="120.0" stroke="black" stroke-width="2" />
<line x1="1810" y1="600.0" x2="50" y2="600.0" stroke="black" stroke-width="2" />
<line x1="1650" y1="120.0" x2="1690" y2="200.0" stroke="black" stroke-width="2" />
<line x1="1810" y1="600.0" x2="50" y2="600.0" stroke="black" stroke-width="2" />
<line x1="1690" y1="200.0" x2="1730" y2="200.0" stroke="black" stroke-width="2" />
<line x1="1810" y1="600.0" x2="50" y2="600.0" stroke="black" stroke-width="2" />
<line x1="1730" y1="200.0" x2="1770" y2="200.0" stroke="black" stroke-width="2" />
<line x1="1810" y1="600.0" x2="50" y2="600.0" stroke="black" stroke-width="2" />
<line x1="1770" y1="200.0" x2="1810" y2="200.0" stroke="black" stroke-width="2" />
<line x1="1810" y1="600.0" x2="50" y2="600.0" stroke="black" stroke-width="2" />
<line x1="1810" y1="200.0" x2="1810" y2="600.0" stroke="black" stroke-width="2" />
<line x1="1810" y1="600.0" x2="50" y2="600.0" stroke="black" stroke-width="2" />
</svg>